<svg width="35" height="33" viewBox="0 0 35 33" fill="none" xmlns="http://www.w3.org/2000/svg">
<g clip-path="url(#clip0_13_3)">
<path d="M35 32.9738H0V9.30654H21.3737C21.5314 9.16047 21.6303 9.01616 21.6949 8.8472C21.7595 8.67825 21.7272 8.48114 21.6873 8.32803C19.3589 6.44317 18.5986 3.09935 21.2596 0.987463C23.7306 -0.948434 27.7221 0.10751 28.6725 2.92336C29.4328 5.03525 28.2923 6.97114 26.7394 8.45123C26.7052 8.59906 26.7033 8.79441 26.7622 8.93696C26.8212 9.07951 26.8896 9.18159 27.0949 9.3083H34.9962V32.9755L35 32.9738Z" fill="#CACA78"/>
<path d="M12.6018 33H0V9.30639H12.6018V18.3717C12.6874 18.7676 12.9953 18.7148 13.2994 18.6884C13.4705 18.4966 13.6339 18.3083 13.8031 18.127C15.8654 16.1507 18.9217 16.3055 20.8358 17.8912C22.5578 19.4769 22.7498 21.9443 21.2178 23.8819C19.1118 26.3493 15.2838 25.8196 13.4457 23.5687C13.1625 23.4314 12.6912 23.5018 12.5999 23.9365V33.0018L12.6018 33Z" fill="#1D1D1B"/>
</g>
<defs>
<clipPath id="clip0_13_3">
<rect width="35" height="33" fill="white"/>
</clipPath>
</defs>
</svg>
